{"title":"Ek Tha Tiger Audio Cleaned SCamRip MPEG PS (DDD) - Hindi Movie","uid":7534919,"size":1706774532,"categoryP":"video","categoryS":"movies","magnet":"?xt=urn:btih:c30053252b964f9341ffb7dbcf910da55aeaff57&amp;dn=Ek+Tha+Tiger+Audio+Cleaned+SCamRip+MPEG+PS+%28DDD%29+-+Hindi+Movie&amp;tr=udp%3A%2F%2Ftracker.openbittorrent.com%3A80&amp;tr=udp%3A%2F%2Fopen.demonii.com%3A1337&amp;tr=udp%3A%2F%2Ftracker.coppersurfer.tk%3A6969&amp;tr=udp%3A%2F%2Fexodus.desync.com%3A6969","seeders":0,"leechers":0,"uploader":"SJonam","files":1,"time":1345061646,"description":" &lt;a href=&quot;http://desibbrg.org/images/66952052392581364616.gif&quot; rel=&quot;nofollow&quot; target=&quot;_NEW&quot;&gt;http://desibbrg.org/images/66952052392581364616.gif&lt;/a&gt;\n &lt;a href=&quot;\nhttp://desibbrg.org/images/82985830083404501674.jpg&quot; rel=&quot;nofollow&quot; target=&quot;_NEW&quot;&gt;\nhttp://desibbrg.org/images/82985830083404501674.jpg&lt;/a&gt;\n &lt;a href=&quot;\nhttp://desibbrg.org/images/80658222254555395297.jpg&quot; rel=&quot;nofollow&quot; target=&quot;_NEW&quot;&gt;\nhttp://desibbrg.org/images/80658222254555395297.jpg&lt;/a&gt;\n\nMedia Info - \nGeneral\nFormat : MPEG-PS\nFile size : 1.59 GiB\nDuration : 1h 43mn\nOverall bit rate : 2 196 Kbps\nVideo #224\nID : 224 (0xE0)\nFormat : MPEG Video\nFormat version : Version 2\nFormat profile : Main@High 1440\nFormat settings, BVOP : Yes\nFormat settings, Matrix : Custom\nDuration : 1h 43mn\nBit rate mode : Constant\nBit rate : 2 000 Kbps\nWidth : 720 pixels\nHeight : 576 pixels\nDisplay aspect ratio : 4:3\nFrame rate : 25.000 fps\nStandard : PAL\nColor space : YUV\nChroma subsampling : 4:2:0\nBit depth : 8 bits\nScan type : Progressive\nCompression mode : Lossy\nBits/(Pixel*Frame) : 0.193\nStream size : 1.44 GiB (91%)\n\nAudio #192\nID : 192 (0xC0)\nFormat : MPEG Audio\nFormat version : Version 1\nFormat profile : Layer 2\nDuration : 1h 43mn\nBit rate mode : Constant\nBit rate : 160 Kbps\nChannel(s) : 2 channels\nSampling rate : 48.0 KHz\nCompression mode : Lossy\nStream size : 119 MiB (7%)\n\nRipper : DDD\n\nSeeding 24x7... Extreme Seeding...\n\n\nEnjoy!\n","torrent":{"xt":"urn:btih:c30053252b964f9341ffb7dbcf910da55aeaff57","amp;dn":"Ek+Tha+Tiger+Audio+Cleaned+SCamRip+MPEG+PS+%28DDD%29+-+Hindi+Movie","amp;tr":["udp%3A%2F%2Ftracker.openbittorrent.com%3A80","udp%3A%2F%2Fopen.demonii.com%3A1337","udp%3A%2F%2Ftracker.coppersurfer.tk%3A6969","udp%3A%2F%2Fexodus.desync.com%3A6969"],"infoHash":"c30053252b964f9341ffb7dbcf910da55aeaff57","infoHashBuffer":{"type":"Buffer","data":[195,0,83,37,43,150,79,147,65,255,183,219,207,145,13,165,90,234,255,87]},"announce":[],"urlList":[]}}